<svg width="150" height="150" viewBox="0 0 150 150" fill="none" xmlns="http://www.w3.org/2000/svg">
<path d="M82.2914 65.4094C83.7217 65.4094 84.8813 64.2299 84.8813 62.775C84.8813 61.3201 83.7217 60.1406 82.2914 60.1406C80.8611 60.1406 79.7016 61.3201 79.7016 62.775C79.7016 64.2299 80.8611 65.4094 82.2914 65.4094Z" fill="url(#paint0_linear)"/>
<path d="M143.044 23.8406H133.186C129.295 17.9555 122.644 14.0625 115.097 14.0625C107.55 14.0625 100.901 17.9555 97.0078 23.8406H76.8164V16.8938C76.8158 16.5965 76.7566 16.3024 76.6422 16.028C76.5278 15.7537 76.3605 15.5046 76.1498 15.295C75.9391 15.0854 75.6892 14.9194 75.4143 14.8064C75.1394 14.6935 74.8449 14.6358 74.5477 14.6367H65.3977C65.1004 14.6358 64.806 14.6935 64.5311 14.8064C64.2561 14.9194 64.0062 15.0854 63.7955 15.295C63.5848 15.5046 63.4175 15.7537 63.3031 16.028C63.1887 16.3024 63.1295 16.5965 63.1289 16.8938V23.8406H60.4172C60.12 23.8397 59.8255 23.8974 59.5506 24.0103C59.2757 24.1233 59.0257 24.2893 58.815 24.4989C58.6043 24.7085 58.437 24.9576 58.3226 25.2319C58.2082 25.5063 58.1491 25.8004 58.1484 26.0977V77.4422C58.1484 78.6891 59.1633 79.6992 60.4172 79.6992H86.5102C86.998 81.9416 87.9766 84.048 89.3755 85.8672C90.7744 87.6863 92.5589 89.173 94.6008 90.2203V111.863H89.5781C88.9781 111.861 88.402 112.098 87.9766 112.521C87.5512 112.945 87.3112 113.519 87.3094 114.12V116.752H52.9992C50.8125 113.801 47.3438 111.863 43.4086 111.863H16.6758C10.0641 111.865 4.6875 117.265 4.6875 123.902C4.6875 130.538 10.0641 135.938 16.6758 135.938H43.4062C47.3438 135.938 50.8125 133.997 52.9992 131.046H87.3117V133.68C87.3117 134.927 88.3289 135.938 89.5805 135.938H113.883C114.18 135.938 114.474 135.881 114.749 135.768C115.024 135.655 115.274 135.489 115.485 135.279C115.696 135.07 115.863 134.82 115.977 134.546C116.092 134.272 116.151 133.978 116.152 133.68V114.122C116.151 113.825 116.092 113.53 115.977 113.256C115.863 112.982 115.696 112.733 115.485 112.523C115.274 112.314 115.024 112.147 114.749 112.035C114.474 111.922 114.18 111.864 113.883 111.865H108.86V90.2227C110.902 89.1752 112.686 87.6885 114.085 85.8693C115.484 84.0502 116.463 81.9439 116.951 79.7016H143.044C143.341 79.7025 143.635 79.6448 143.91 79.5319C144.185 79.4189 144.435 79.2529 144.646 79.0433C144.857 78.8337 145.024 78.5846 145.138 78.3102C145.253 78.0359 145.312 77.7417 145.312 77.4445V26.0977C145.311 25.4976 145.071 24.9228 144.645 24.4996C144.22 24.0764 143.644 23.8394 143.044 23.8406ZM134.876 65.7211C134.875 66.0183 134.816 66.3125 134.702 66.5868C134.587 66.8611 134.42 67.1102 134.209 67.3198C133.998 67.5294 133.749 67.6955 133.474 67.8084C133.199 67.9214 132.904 67.979 132.607 67.9781H115.038C113.784 67.9781 112.77 66.968 112.77 65.7211C112.77 64.4742 113.784 63.4641 115.038 63.4641H132.607C133.861 63.4641 134.876 64.4742 134.876 65.7211ZM82.1602 35.707V47.3953H70.5938V35.707H82.1602ZM82.2914 55.6266C84.1838 55.6315 85.997 56.3869 87.3332 57.7271C88.6693 59.0672 89.4194 60.8826 89.4188 62.775C89.4194 64.6672 88.6693 66.4824 87.333 67.8221C85.9968 69.1619 84.1836 69.9167 82.2914 69.9211C80.4182 69.8872 78.6333 69.1192 77.3206 67.7826C76.0079 66.4459 75.2724 64.6473 75.2724 62.7738C75.2724 60.9004 76.0079 59.1018 77.3206 57.7651C78.6333 56.4284 80.4182 55.6605 82.2914 55.6266ZM115.097 18.5766C124.566 18.5766 132.27 26.3391 132.27 35.8781C132.27 45.4195 124.566 53.1844 115.097 53.1844C105.626 53.1844 97.9219 45.4195 97.9219 35.8781C97.9242 26.3367 105.628 18.5766 115.097 18.5766ZM67.6664 19.1508H72.2789V23.8406H67.6664V19.1508ZM111.616 116.379V131.423H91.8492V116.379H111.616ZM105.823 86.6391C105.776 86.6555 105.724 86.6602 105.68 86.6813C104.418 87.1641 103.079 87.4128 101.728 87.4148C100.378 87.4123 99.0398 87.1637 97.7789 86.6813C97.7344 86.6602 97.6805 86.6578 97.6336 86.6391C96.1156 86.032 94.7518 85.0943 93.6414 83.8943C92.531 82.6943 91.7018 81.2621 91.2141 79.7016H112.24C111.753 81.2624 110.925 82.695 109.815 83.8951C108.705 85.0953 107.341 86.0327 105.823 86.6391Z" fill="url(#paint1_linear)"/>
<defs>
<linearGradient id="paint0_linear" x1="82.2914" y1="60.1406" x2="82.2914" y2="65.4094" gradientUnits="userSpaceOnUse">
<stop stop-color="#D7277C"/>
<stop offset="1" stop-color="#FFCC00"/>
</linearGradient>
<linearGradient id="paint1_linear" x1="75" y1="14.0625" x2="75" y2="135.938" gradientUnits="userSpaceOnUse">
<stop stop-color="#D7277C"/>
<stop offset="1" stop-color="#FFCC00"/>
</linearGradient>
</defs>
</svg>
