<svg width="150" height="150" viewBox="0 0 150 150" fill="none" xmlns="http://www.w3.org/2000/svg">
<g clip-path="url(#clip0_49_182)">
<path d="M147.656 85.9752V23.4375C147.656 19.5604 144.502 16.4063 140.625 16.4063H67.9688V2.62531C67.9688 1.77277 67.5064 0.98761 66.7603 0.575696C66.4078 0.378821 66.0161 0.288293 65.625 0.288293V0.281555H14.1287C14.1234 0.281555 14.1182 0.281555 14.1132 0.281555H14.0625V0.287122C13.6714 0.287122 13.28 0.378235 12.9272 0.575696C12.1811 0.98761 11.7188 1.77277 11.7188 2.62531V16.4063H9.375C5.49785 16.4063 2.34375 19.5604 2.34375 23.4375V103.125C2.34375 107.002 5.49785 110.156 9.375 110.156H65.5617C65.0156 125.361 59.3619 133.64 57.5174 135.938H42.1875C38.3104 135.938 35.1562 139.092 35.1562 142.969C35.1562 144.87 35.8978 146.64 37.2047 147.91C38.5187 149.257 40.2879 150 42.1875 150H107.812C111.69 150 114.844 146.846 114.844 142.969C114.844 139.092 111.69 135.938 107.812 135.938H92.4826C90.6381 133.64 84.9844 125.361 84.4383 110.156H107.875C112.291 116.03 119.161 119.531 126.562 119.531C139.485 119.531 150 109.017 150 96.0938C150 92.5852 149.173 89.1097 147.656 85.9752ZM16.4062 6.8549L38.601 20.7366C39.3609 21.2127 40.3269 21.2127 41.0865 20.7366L63.2812 6.8549V32.531H16.4062V6.8549ZM9.375 21.0938H11.7188V34.8747C11.7188 36.1691 12.767 37.2185 14.0625 37.2185H65.625C66.9205 37.2185 67.9688 36.1691 67.9688 34.8747V21.0938H140.625C141.918 21.0938 142.969 22.1455 142.969 23.4375V79.4218C138.66 75.1638 132.837 72.6563 126.562 72.6563C114.431 72.6563 104.424 81.9226 103.244 93.75H7.03125V23.4375C7.03125 22.1455 8.08184 21.0938 9.375 21.0938ZM86.756 135.938H63.2437C66.0448 131.445 69.8238 123.037 70.248 110.156H79.7517C80.1759 123.037 83.9552 131.445 86.756 135.938ZM126.562 114.844C120.291 114.844 114.466 111.729 110.976 106.507C108.906 103.423 107.812 99.8224 107.812 96.0938C107.812 85.7552 116.224 77.3438 126.562 77.3438C133.612 77.3438 139.998 81.2473 143.227 87.5323L143.234 87.5426C144.594 90.1588 145.312 93.1149 145.312 96.0938C145.312 106.432 136.901 114.844 126.562 114.844Z" fill="url(#paint0_linear)"/>
<path d="M139.155 86.8881L130.918 83.5784C128.11 82.4684 125.017 82.466 122.196 83.5831L113.97 86.8881C112.768 87.37 112.187 88.7353 112.669 89.9367C113.15 91.1373 114.519 91.7174 115.718 91.2369L123.933 87.9363C125.629 87.2669 127.501 87.2669 129.181 87.9317L137.407 91.2366C137.693 91.3523 137.99 91.4071 138.281 91.4071C139.208 91.406 140.089 90.8511 140.455 89.9364C140.938 88.7353 140.357 87.37 139.155 86.8881ZM136.99 96.3434L131.799 93.7365C128.471 92.0886 124.656 92.0851 121.314 93.7424L116.135 96.3437C114.979 96.9237 114.512 98.3326 115.093 99.4896C115.674 100.646 117.08 101.117 118.24 100.532L123.408 97.9368C125.411 96.9413 127.716 96.9422 129.705 97.931L134.885 100.532C135.223 100.702 135.583 100.782 135.935 100.782C136.794 100.782 137.62 100.309 138.032 99.4899C138.613 98.3323 138.146 96.9234 136.99 96.3434ZM132.289 103.369L129.698 102.085C127.732 101.101 125.391 101.101 123.438 102.08L120.836 103.368C119.675 103.943 119.199 105.348 119.774 106.509C120.348 107.666 121.749 108.145 122.914 107.568L125.528 106.275C126.173 105.952 126.945 105.95 127.609 106.28L130.211 107.568C130.545 107.734 130.9 107.812 131.248 107.812C132.111 107.812 132.942 107.334 133.351 106.509C133.926 105.349 133.45 103.943 132.289 103.369ZM82.0313 63.2813H84.375V70.3125C84.375 74.1897 87.5291 77.3438 91.4063 77.3438C93.3059 77.3438 95.0751 76.6011 96.3454 75.2965C97.696 73.9837 98.4375 72.2133 98.4375 70.3125V64.3887L118.794 67.5144C119.048 67.5568 119.302 67.5774 119.556 67.5774C120.646 67.5774 121.71 67.193 122.557 66.474C123.614 65.5802 124.219 64.2709 124.219 62.8828V58.5938C129.389 58.5938 133.594 54.3882 133.594 49.2188V46.875C133.594 41.7056 129.389 37.5 124.219 37.5V33.4213C124.219 31.984 123.578 30.646 122.459 29.7513C121.339 28.8566 119.895 28.5234 118.49 28.8416L91.1385 35.1563H82.0313C76.8609 35.1563 72.6563 39.3618 72.6563 44.5313V53.9063C72.6563 59.0757 76.8609 63.2813 82.0313 63.2813ZM98.4609 53.5313C98.6719 52.2422 99.8906 51.375 101.156 51.5859L115.219 53.9297C116.508 54.1406 117.375 55.3594 117.164 56.625C116.977 57.7734 115.969 58.5938 114.844 58.5938C114.727 58.5938 114.586 58.5938 114.469 58.5703L100.406 56.2266C99.1172 56.0156 98.25 54.7969 98.4609 53.5313ZM93.75 70.3125C93.75 70.9386 93.5098 71.5151 93.0337 71.981C92.608 72.4172 92.0312 72.6563 91.4063 72.6563C90.1131 72.6563 89.0625 71.6045 89.0625 70.3125V63.2813H91.2255L93.75 63.6689V70.3125ZM128.906 46.875V49.2188C128.906 51.8039 126.803 53.9063 124.219 53.9063V42.1875C126.803 42.1875 128.906 44.2899 128.906 46.875ZM77.3438 44.5313C77.3438 41.9461 79.4473 39.8438 82.0313 39.8438H89.0625V58.5938H82.0313C79.4473 58.5938 77.3438 56.4914 77.3438 53.9063V44.5313ZM14.0625 89.0625H51.5625C52.858 89.0625 53.9063 88.0131 53.9063 86.7188V82.0313H60.9375C62.233 82.0313 63.2813 80.9818 63.2813 79.6875V46.875C63.2813 45.5807 62.233 44.5313 60.9375 44.5313H25.7813C24.4857 44.5313 23.4375 45.5807 23.4375 46.875V51.5625H14.0625C12.767 51.5625 11.7188 52.6119 11.7188 53.9063V86.7188C11.7188 88.0131 12.767 89.0625 14.0625 89.0625ZM42.1875 65.625H23.4375C22.1484 65.625 21.0938 64.5703 21.0938 63.2813C21.0938 61.9922 22.1484 60.9375 23.4375 60.9375H42.1875C43.4766 60.9375 44.5313 61.9922 44.5313 63.2813C44.5313 64.5703 43.4766 65.625 42.1875 65.625ZM44.5313 70.3125C44.5313 71.6016 43.4766 72.6563 42.1875 72.6563H39.8438C38.5547 72.6563 37.5 71.6016 37.5 70.3125C37.5 69.0234 38.5547 67.9688 39.8438 67.9688H42.1875C43.4766 67.9688 44.5313 69.0234 44.5313 70.3125ZM23.4375 67.9688H30.4688C31.7578 67.9688 32.8125 69.0234 32.8125 70.3125C32.8125 71.6016 31.7578 72.6563 30.4688 72.6563H23.4375C22.1484 72.6563 21.0938 71.6016 21.0938 70.3125C21.0938 69.0234 22.1484 67.9688 23.4375 67.9688ZM23.4375 75H42.1875C43.4766 75 44.5313 76.0547 44.5313 77.3438C44.5313 78.6328 43.4766 79.6875 42.1875 79.6875H23.4375C22.1484 79.6875 21.0938 78.6328 21.0938 77.3438C21.0938 76.0547 22.1484 75 23.4375 75ZM28.125 49.2188H58.5938V77.3438H53.9063V53.9063C53.9063 52.6119 52.858 51.5625 51.5625 51.5625H28.125V49.2188Z" fill="url(#paint1_linear)"/>
</g>
<defs>
<linearGradient id="paint0_linear" x1="75" y1="0.28125" x2="75" y2="150" gradientUnits="userSpaceOnUse">
<stop stop-color="#D7277C"/>
<stop offset="1" stop-color="#FFCC00"/>
</linearGradient>
<linearGradient id="paint1_linear" x1="75" y1="28.8125" x2="75" y2="89.0625" gradientUnits="userSpaceOnUse">
<stop stop-color="#D7277C"/>
<stop offset="1" stop-color="#FFCC00"/>
</linearGradient>
<clipPath id="clip0_49_182">
<rect width="150" height="150" fill="white"/>
</clipPath>
</defs>
</svg>
