<svg width="150" height="150" viewBox="0 0 150 150" fill="none" xmlns="http://www.w3.org/2000/svg">
<path d="M139.735 72.7286H116.014V7.92332C116.014 4.88494 113.549 2.41931 110.51 2.41931H39.5021C38.1645 2.41931 36.9334 2.89597 35.9798 3.69314C35.2576 4.2946 34.6919 5.08064 34.3538 5.97742C34.1224 6.5821 33.9981 7.23689 33.9981 7.92361V28.1965H10.2677C7.35234 28.1962 4.98047 30.568 4.98047 33.4834V72.1277C4.98047 75.043 7.35234 77.4149 10.2677 77.4149H33.9981V142.077C33.9981 145.115 36.4638 147.581 39.5021 147.581H110.51C113.549 147.581 116.014 145.115 116.014 142.077V121.877H139.735C142.649 121.877 145.02 119.507 145.02 116.592V78.0137C145.02 75.0996 142.649 72.7286 139.735 72.7286ZM82.0312 7.10359H86.7188C87.3659 7.10359 87.8906 7.6283 87.8906 8.27546C87.8906 8.92263 87.3659 9.44734 86.7188 9.44734H82.0312C81.3841 9.44734 80.8594 8.92263 80.8594 8.27546C80.8594 7.6283 81.3841 7.10359 82.0312 7.10359ZM63.2812 7.10359H75C75.6472 7.10359 76.1719 7.6283 76.1719 8.27546C76.1719 8.92263 75.6472 9.44734 75 9.44734H63.2812C62.6341 9.44734 62.1094 8.92263 62.1094 8.27546C62.1094 7.6283 62.6341 7.10359 63.2812 7.10359ZM10.2677 75.0712C8.64229 75.0712 7.32422 73.7534 7.32422 72.1277V33.4834C7.32422 31.8577 8.64229 30.5399 10.2677 30.5399H33.9981H38.6719H65.3183C66.9439 30.5399 68.2617 31.8577 68.2617 33.4834V72.1277C68.2617 73.7534 66.9439 75.0712 65.3183 75.0712H53.3203V56.0821C55.2149 55.4449 56.5567 53.5986 56.5567 51.5018V50.705C56.5567 50.2242 56.4894 49.7467 56.3546 49.2899C56.2345 48.8651 56.0587 48.4608 55.8302 48.0767L50.0499 38.4439C49.7247 37.9019 49.1388 37.5712 48.5089 37.5712H44.7296L48.3009 48.9384C48.336 49.0526 48.3536 49.1698 48.3536 49.2899H45.9542L42.2716 37.5712H38.9786V49.2899H36.6349V37.5712H33.2862L29.6007 49.2899H27.2013C27.2013 49.1698 27.2188 49.0523 27.2569 48.9384L30.8282 37.5712H27.1046C26.4747 37.5712 25.8888 37.9022 25.5636 38.4439L19.7833 48.0767C19.5548 48.4608 19.379 48.8648 19.2589 49.2899C19.1241 49.7469 19.0567 50.2242 19.0567 50.705V51.5018C19.0567 53.7993 20.6678 55.7932 22.8516 56.228V75.0712H10.2677ZM25.1953 67.9137V62.3068C25.1953 61.9134 25.5144 61.5946 25.9078 61.5946H38.5456C38.9391 61.5946 39.2578 61.9134 39.2578 62.3068V67.9137C39.2578 68.3071 38.9391 68.6262 38.5456 68.6262H25.9078C25.5144 68.6259 25.1953 68.3068 25.1953 67.9137ZM41.6016 65.1102C41.6016 63.1684 43.1757 61.5946 45.1172 61.5946C47.0587 61.5946 48.6328 63.1684 48.6328 65.1102V75.0712H41.6016V65.1102ZM74.9956 141.888C73.4235 141.888 72.1494 140.614 72.1494 139.042C72.1494 137.47 73.4238 136.196 74.9956 136.196C76.5677 136.196 77.8421 137.47 77.8421 139.042C77.8421 140.614 76.568 141.888 74.9956 141.888ZM111.328 129.428C111.328 130.474 110.479 131.324 109.433 131.324H40.5674C39.5215 131.324 38.6719 130.474 38.6719 129.428V77.4149H65.3183C68.2336 77.4149 70.6055 75.043 70.6055 72.1277V33.4834C70.6055 30.568 68.2336 28.1962 65.3183 28.1962H38.6719V18.3756C38.6719 17.327 39.5215 16.4801 40.5674 16.4801H109.433C110.478 16.4801 111.328 17.327 111.328 18.3756V72.7286H84.6794C81.7652 72.7286 79.3945 75.0996 79.3945 78.0137V116.592C79.3945 119.507 81.7652 121.877 84.6794 121.877H111.328V129.428ZM92.8128 94.0362V93.4005C92.8128 93.0961 93.0325 92.838 93.3284 92.7852L100.749 91.4727C101.127 91.4115 101.517 91.4789 101.845 91.6781L103.16 92.4659C103.35 92.5804 103.465 92.7823 103.465 93.002V93.9073C103.465 95.9994 102.284 97.8624 100.538 98.7706V100.774C100.538 100.883 100.559 100.983 100.603 101.076C100.717 101.326 100.966 101.495 101.256 101.495H103.441C103.42 101.682 103.389 101.864 103.35 102.044C103.34 102.091 103.326 102.136 103.314 102.183C103.283 102.309 103.251 102.435 103.212 102.557C103.188 102.633 103.159 102.706 103.132 102.78C103.099 102.871 103.065 102.962 103.028 103.051C102.994 103.13 102.956 103.208 102.918 103.286C102.878 103.368 102.838 103.45 102.794 103.53C101.844 105.268 100.004 106.447 97.8858 106.447C95.7747 106.447 93.9401 105.275 92.9883 103.548C92.9361 103.454 92.8887 103.358 92.8424 103.261C92.8107 103.194 92.7776 103.128 92.7486 103.06C92.7079 102.966 92.6725 102.868 92.6367 102.771C92.6106 102.7 92.5825 102.629 92.5591 102.555C92.526 102.452 92.4996 102.347 92.4727 102.241C92.4548 102.172 92.4337 102.103 92.4184 102.032C92.3877 101.888 92.3648 101.741 92.3452 101.594C92.3408 101.561 92.3332 101.529 92.3294 101.496H94.7572C95.0769 101.496 95.3522 101.282 95.4431 100.989C95.4633 100.922 95.4753 100.851 95.4753 100.775V98.6426C93.888 97.7218 92.8128 96.005 92.8128 94.0362ZM142.676 116.592C142.676 118.217 141.359 119.534 139.735 119.534H116.014H111.328H109.858V105.468C109.858 103.273 108.079 101.494 105.884 101.494H105.597V91.9037C105.597 89.847 104.762 87.9805 103.412 86.6332C102.064 85.2829 100.198 84.4476 98.1387 84.4476C94.0192 84.4476 90.6826 87.7875 90.6826 91.9037V101.494H90.3943C88.1991 101.494 86.4208 103.273 86.4208 105.468V119.534H84.6797C83.0552 119.534 81.7386 118.217 81.7386 116.592V78.0137C81.7386 76.3892 83.0552 75.0726 84.6797 75.0726H111.328H116.014H139.735C141.359 75.0726 142.676 76.3892 142.676 78.0137V116.592Z" fill="url(#paint0_linear)"/>
<path d="M103.125 58.3731C102.478 58.3731 101.953 58.8978 101.953 59.545V64.2325C101.953 64.8796 102.478 65.4043 103.125 65.4043C103.772 65.4043 104.297 64.8796 104.297 64.2325V59.545C104.297 58.8978 103.772 58.3731 103.125 58.3731ZM82.96 42.21C83.1856 42.4327 83.4844 42.5528 83.7891 42.5528C83.9414 42.5528 84.0938 42.5235 84.2373 42.4649C84.4834 42.3621 84.6797 42.1866 84.8057 41.9668C84.9053 41.7911 84.9606 41.5918 84.9606 41.3809V39.6231H100.781C101.428 39.6231 101.953 40.1475 101.953 40.795V52.5137C101.953 53.1612 102.477 53.6856 103.125 53.6856C103.772 53.6856 104.297 53.1612 104.297 52.5137V40.795C104.297 38.8555 102.72 37.2793 100.781 37.2793H84.9606V35.5215C84.9606 35.0469 84.6765 34.6192 84.237 34.4405C83.8005 34.2559 83.2966 34.3587 82.9597 34.6924L80.03 37.6221C79.573 38.0791 79.573 38.8233 80.03 39.2803L82.96 42.21ZM46.875 91.1859C47.5222 91.1859 48.0469 90.6612 48.0469 90.014V85.3265C48.0469 84.6793 47.5222 84.1546 46.875 84.1546C46.2278 84.1546 45.7031 84.6793 45.7031 85.3265V90.014C45.7031 90.6612 46.2278 91.1859 46.875 91.1859ZM67.04 107.349C66.7031 107.015 66.1992 106.915 65.7627 107.097C65.3232 107.275 65.0391 107.703 65.0391 108.178V109.936H49.2188C48.5713 109.936 48.0469 109.411 48.0469 108.764V97.045C48.0469 96.3975 47.5225 95.8731 46.875 95.8731C46.2275 95.8731 45.7031 96.3975 45.7031 97.045V108.764C45.7031 110.703 47.2793 112.279 49.2188 112.279H65.0391V114.037C65.0391 114.248 65.0947 114.447 65.1943 114.623C65.3203 114.843 65.5166 115.019 65.7627 115.121C65.9062 115.18 66.0586 115.209 66.2109 115.209C66.5156 115.209 66.8145 115.089 67.04 114.866L69.9697 111.937C70.4268 111.48 70.4268 110.735 69.9697 110.278L67.04 107.349ZM98.2521 97.5512C99.44 97.5512 100.403 96.5882 100.403 95.4005V95.3929C100.403 95.2095 100.254 95.061 100.071 95.061H96.4333C96.2499 95.061 96.1017 95.2095 96.1017 95.3929V95.4005C96.1017 96.5882 97.0644 97.5512 98.2521 97.5512ZM120.715 94.9649C120.662 94.6631 120.633 94.3523 120.633 94.0359V93.4001C120.633 93.0957 120.853 92.8376 121.152 92.7849L128.569 91.4724C128.948 91.4112 129.337 91.4786 129.668 91.6778L130.983 92.4656C131.171 92.5801 131.285 92.782 131.285 93.0017V93.907C131.285 94.2911 131.244 94.6658 131.168 95.032C132.563 94.1446 133.485 92.5831 133.485 90.8074V90.7546C133.447 87.2595 130.606 84.447 127.11 84.447H124.863C123.105 84.447 121.518 85.1592 120.366 86.3103C119.215 87.4617 118.503 89.0496 118.503 90.8074C118.503 92.5391 119.382 94.0655 120.715 94.9649ZM124.254 95.061C124.071 95.061 123.923 95.2095 123.923 95.3926V95.4002C123.923 96.5882 124.886 97.5512 126.073 97.5512C127.261 97.5512 128.224 96.5882 128.224 95.4002V95.3926C128.224 95.2095 128.075 95.061 127.892 95.061H124.254ZM133.705 101.495H131.265C130.945 104.285 128.578 106.45 125.707 106.45C122.836 106.45 120.469 104.284 120.149 101.495H118.216C116.018 101.495 114.24 103.273 114.24 105.468L114.246 112.564H118.94V119.534H132.992V112.564H137.684L137.678 105.468C137.677 103.273 135.899 101.495 133.705 101.495Z" fill="url(#paint1_linear)"/>
<defs>
<linearGradient id="paint0_linear" x1="75" y1="2.41931" x2="75" y2="150" gradientUnits="userSpaceOnUse">
<stop stop-color="#D7277C"/>
<stop offset="1" stop-color="#FFCC00"/>
</linearGradient>
<linearGradient id="paint1_linear" x1="75" y1="28.8125" x2="75" y2="89.0625" gradientUnits="userSpaceOnUse">
<stop stop-color="#D7277C"/>
<stop offset="1" stop-color="#FFCC00"/>
</linearGradient>
</defs>
</svg>
