<svg width="150" height="150" viewBox="0 0 150 150" fill="none" xmlns="http://www.w3.org/2000/svg">
<path d="M86.1397 121.004C86.1397 121.621 85.6324 122.107 85.0368 122.107H48.6618C48.0662 122.107 47.5588 121.621 47.5588 121.004C47.5588 120.408 48.0662 119.901 48.6618 119.901C50.8677 119.901 52.5221 119.217 53.7353 117.805C55.8309 115.379 56.0294 111.364 55.9412 108.96H77.7574C77.6691 111.386 77.8897 115.401 79.9632 117.827C81.1765 119.217 82.8309 119.901 85.0368 119.901C85.6324 119.901 86.1397 120.408 86.1397 121.004ZM117.353 15.5625H16.3456C10.3677 15.5625 5.53677 20.3934 5.53677 26.3713V95.9448C5.53677 101.923 10.3677 106.754 16.3456 106.754H85.103V93.2316H16.3456C14.8677 93.2316 13.6544 92.0184 13.6544 90.5184V26.3713C13.6544 24.8713 14.8677 23.6581 16.3456 23.6581H117.353C118.831 23.6581 120.044 24.8713 120.044 26.3713V57.3419H128.162V26.3713C128.162 20.3934 123.331 15.5625 117.353 15.5625ZM66.8603 97.114C68.4265 97.114 69.7059 98.3934 69.7059 100.004C69.7059 101.592 68.4265 102.871 66.8603 102.871C66.4819 102.874 66.1066 102.802 65.7561 102.659C65.4057 102.517 65.0869 102.306 64.8183 102.039C64.5497 101.773 64.3365 101.456 64.191 101.106C64.0455 100.757 63.9706 100.382 63.9706 100.004C63.9706 98.3934 65.25 97.114 66.8603 97.114Z" fill="black"/>
<path d="M117.838 26.3713V34.7757H15.8603V26.3713C15.8603 26.1066 16.0809 25.864 16.3456 25.864H117.353C117.618 25.864 117.838 26.1066 117.838 26.3713ZM68.9118 41.4H108.986V43.6059H68.9118V41.4ZM59.336 44.7088V54.6353C59.336 55.2203 59.1036 55.7814 58.6899 56.1951C58.2763 56.6088 57.7152 56.8412 57.1301 56.8412H25.5198C24.9348 56.8412 24.3737 56.6088 23.9601 56.1951C23.5464 55.7814 23.314 55.2203 23.314 54.6353V44.7088C23.314 44.1238 23.5464 43.5627 23.9601 43.149C24.3737 42.7353 24.9348 42.5029 25.5198 42.5029H57.1301C57.7152 42.5029 58.2763 42.7353 58.6899 43.149C59.1036 43.5627 59.336 44.1238 59.336 44.7088ZM68.9118 48.5691H108.986V50.775H68.9118V48.5691ZM68.9118 55.7382H81.4566V57.9441H68.9118V55.7382ZM78.0948 66.7676V84.8338C78.0948 85.4188 77.8624 85.9799 77.4488 86.3936C77.0351 86.8073 76.474 87.0397 75.889 87.0397H57.8007C57.2157 87.0397 56.6546 86.8073 56.2409 86.3936C55.8273 85.9799 55.5948 85.4188 55.5948 84.8338V66.7676C55.5948 66.1826 55.8273 65.6215 56.2409 65.2078C56.6546 64.7942 57.2157 64.5617 57.8007 64.5617H75.889C76.474 64.5617 77.0351 64.7942 77.4488 65.2078C77.8624 65.6215 78.0948 66.1826 78.0948 66.7676ZM45.8074 66.7676V84.8338C45.8074 85.4188 45.5749 85.9799 45.1613 86.3936C44.7476 86.8073 44.1865 87.0397 43.6015 87.0397H25.5132C24.9282 87.0397 24.3671 86.8073 23.9534 86.3936C23.5398 85.9799 23.3073 85.4188 23.3073 84.8338V66.7676C23.3073 66.1826 23.5398 65.6215 23.9534 65.2078C24.3671 64.7942 24.9282 64.5617 25.5132 64.5617H43.6015C44.1865 64.5617 44.7476 64.7942 45.1613 65.2078C45.5749 65.6215 45.8074 66.1826 45.8074 66.7676ZM137.846 59.5478H93.9265C90.2868 59.5478 87.3088 62.5037 87.3088 66.1654V127.82C87.3088 131.46 90.2868 134.437 93.9265 134.437H137.846C141.507 134.437 144.463 131.46 144.463 127.82V66.1654C144.463 62.5037 141.507 59.5478 137.846 59.5478ZM114.706 131.835C113.404 131.835 112.346 130.776 112.346 129.474C112.343 129.004 112.48 128.543 112.74 128.151C113 127.758 113.37 127.452 113.805 127.271C114.239 127.089 114.717 127.041 115.179 127.132C115.641 127.224 116.065 127.45 116.397 127.783C116.73 128.115 116.956 128.54 117.048 129.001C117.139 129.463 117.091 129.941 116.909 130.375C116.728 130.81 116.422 131.18 116.029 131.44C115.637 131.7 115.176 131.837 114.706 131.835ZM139.5 122.305C139.5 123.518 138.529 124.511 137.294 124.511H94.4779C93.2647 124.511 92.2721 123.518 92.2721 122.305V67.2684C92.2721 66.0331 93.2647 65.0625 94.4779 65.0625H137.294C138.529 65.0625 139.5 66.0331 139.5 67.2684V122.305Z" fill="black"/>
<path d="M99.161 82.6257H132.624V103.438H99.161V82.6257ZM99.161 71.0801H132.624V76.6081H99.161V71.0801ZM99.1544 115.577H126.331V117.783H99.1544V115.577ZM99.1544 108.96H132.618V111.165H99.1544V108.96Z" fill="black"/>
</svg>
