<svg width="150" height="150" viewBox="0 0 150 150" fill="none" xmlns="http://www.w3.org/2000/svg">
<path d="M111.562 112.734C109.922 112.969 108.281 113.437 106.875 114.375L100.312 107.812V121.172C100.312 121.406 100.312 121.641 100.078 121.875V122.109C99.6094 123.047 98.9062 123.75 97.7344 123.75C96.7969 123.75 95.8594 123.047 95.3906 122.109V121.875C95.3906 121.641 95.1562 121.406 95.1562 121.172V107.812L88.5938 114.375C87.1875 113.672 85.5469 112.969 83.9062 112.734C84.375 112.031 84.8438 111.328 85.3125 110.625L95.1562 100.781V85.3125H100.078V100.781L109.922 110.625C110.625 111.328 111.094 112.031 111.562 112.734ZM129.844 117.422H113.906C108.516 117.422 104.297 121.641 104.297 127.031V138.75H139.688V127.031C139.453 121.875 135.234 117.422 129.844 117.422ZM121.875 96.0937C117.422 96.0937 113.672 99.8437 113.672 104.297C113.672 108.75 117.422 112.5 121.875 112.5C126.328 112.5 130.078 108.75 130.078 104.297C130.078 99.6094 126.328 96.0937 121.875 96.0937ZM81.7969 117.422H65.8594C60.4688 117.422 56.25 121.641 56.25 127.031V138.75H91.4062V127.031C91.4062 121.875 86.9531 117.422 81.7969 117.422ZM73.8281 96.0937C69.375 96.0937 65.625 99.8437 65.625 104.297C65.625 108.75 69.375 112.5 73.8281 112.5C78.2812 112.5 82.0312 108.75 82.0312 104.297C82.0312 99.6094 78.2812 96.0937 73.8281 96.0937Z" fill="url(#paint0_linear)"/>
<path d="M146.25 11.25H97.7344H45.9375C44.0625 11.25 42.6562 12.6562 42.6562 14.5312C42.6562 16.4062 44.0625 17.8125 45.9375 17.8125H146.719C147.656 17.8125 148.359 17.5781 149.062 16.875C149.766 16.1719 150 15.2344 150 14.2969C149.766 12.6562 148.125 11.25 146.25 11.25ZM116.25 32.3438C106.875 32.3438 99.1406 40.0781 99.1406 49.4531C99.1406 58.8281 106.875 66.5625 116.25 66.5625C125.625 66.5625 133.359 58.8281 133.359 49.4531C133.359 40.0781 125.625 32.3438 116.25 32.3438ZM127.031 44.2969L120 49.6875L126.328 56.0156C127.266 56.9531 127.266 58.5937 126.328 59.5312C125.859 60 125.156 60.2344 124.688 60.2344C123.984 60.2344 123.516 60 122.812 59.5312L114.609 51.3281C114.609 51.3281 114.609 51.0938 114.375 51.0938C114.375 51.0938 114.375 50.8594 114.141 50.8594C114.141 50.625 113.906 50.625 113.906 50.3906C113.906 50.1562 113.906 50.1562 113.906 49.9219V49.6875V37.9688C113.906 36.5625 115.078 35.3906 116.484 35.3906C117.891 35.3906 119.062 36.5625 119.062 37.9688V44.7656L124.453 40.7812C125.625 39.8437 127.031 40.0781 127.969 41.25C128.438 41.9531 128.203 43.3594 127.031 44.2969ZM52.5 22.7344V48.0469C54.6094 51.5625 56.0156 55.7812 56.0156 60.4688V81.7969H137.578C140.391 81.7969 142.969 79.4531 142.969 76.4062V22.7344H52.5ZM82.9688 51.5625C82.9688 50.1562 84.1406 48.9844 85.5469 48.9844C86.9531 48.9844 88.125 50.1562 88.125 51.5625V67.7344C88.125 69.1406 86.9531 70.3125 85.5469 70.3125C84.1406 70.3125 82.9688 69.1406 82.9688 67.7344V51.5625ZM76.875 60C76.875 58.5938 78.0469 57.4219 79.4531 57.4219C80.8594 57.4219 82.0312 58.5938 82.0312 60V67.9688C82.0312 69.375 80.8594 70.5469 79.4531 70.5469C78.0469 70.5469 76.875 69.375 76.875 67.9688V60ZM70.5469 56.9531C70.5469 55.5469 71.7188 54.375 73.125 54.375C74.5312 54.375 75.7031 55.5469 75.7031 56.9531V67.9688C75.7031 69.375 74.5312 70.5469 73.125 70.5469C71.7188 70.5469 70.5469 69.375 70.5469 67.9688V56.9531ZM64.4531 63.0469C64.4531 61.6406 65.625 60.4688 67.0312 60.4688C68.4375 60.4688 69.6094 61.6406 69.6094 63.0469V67.7344C69.6094 69.1406 68.4375 70.3125 67.0312 70.3125C65.625 70.3125 64.4531 69.1406 64.4531 67.7344V63.0469ZM89.2969 77.3438H62.8125C61.4062 77.3438 60.2344 76.1719 60.2344 74.7656C60.2344 73.3594 61.4062 72.1875 62.8125 72.1875H89.5312C90.9375 72.1875 92.1094 73.3594 92.1094 74.7656C91.875 76.1719 90.7031 77.3438 89.2969 77.3438ZM116.25 71.4844C104.062 71.4844 94.2188 61.6406 94.2188 49.4531C94.2188 37.2656 104.062 27.4219 116.25 27.4219C128.438 27.4219 138.281 37.2656 138.281 49.4531C138.281 61.6406 128.438 71.4844 116.25 71.4844ZM116.25 32.3438C106.875 32.3438 99.1406 40.0781 99.1406 49.4531C99.1406 58.8281 106.875 66.5625 116.25 66.5625C125.625 66.5625 133.359 58.8281 133.359 49.4531C133.359 40.0781 125.625 32.3438 116.25 32.3438ZM127.031 44.2969L120 49.6875L126.328 56.0156C127.266 56.9531 127.266 58.5937 126.328 59.5312C125.859 60 125.156 60.2344 124.688 60.2344C123.984 60.2344 123.516 60 122.812 59.5312L114.609 51.3281C114.609 51.3281 114.609 51.0938 114.375 51.0938C114.375 51.0938 114.375 50.8594 114.141 50.8594C114.141 50.625 113.906 50.625 113.906 50.3906C113.906 50.1562 113.906 50.1562 113.906 49.9219V49.6875V37.9688C113.906 36.5625 115.078 35.3906 116.484 35.3906C117.891 35.3906 119.062 36.5625 119.062 37.9688V44.7656L124.453 40.7812C125.625 39.8437 127.031 40.0781 127.969 41.25C128.438 41.9531 128.203 43.3594 127.031 44.2969ZM32.3438 41.7187H27.4219C26.9531 41.7187 26.25 41.7187 25.5469 41.7187C24.8438 41.7187 24.375 41.7187 23.6719 41.7187H18.75C8.4375 41.7187 0 50.1562 0 60.4688V83.2031C0 86.7188 2.10937 89.5312 4.92188 90.7031V57.6562C4.92188 56.25 6.09375 55.0781 7.5 55.0781C8.90625 55.0781 10.0781 56.25 10.0781 57.6562V134.297C10.0781 136.641 11.9531 138.75 14.5312 138.75C16.875 138.75 18.9844 136.641 18.9844 134.297V103.828C18.9844 100.078 22.0312 97.0313 25.7812 97.0313C29.5312 97.0313 32.5781 100.078 32.5781 103.828V134.297C32.5781 136.641 34.4531 138.75 37.0312 138.75C39.6094 138.75 41.4844 136.641 41.4844 134.297V57.6562C41.4844 56.25 42.6562 55.0781 44.0625 55.0781C45.4688 55.0781 46.6406 56.25 46.6406 57.6562V90.7031C49.6875 89.5312 51.5625 86.4844 51.5625 83.2031V60.4688C51.0938 50.1562 42.6562 41.7187 32.3438 41.7187ZM25.5469 12.6562C18.75 12.6562 13.5938 17.5781 13.5938 23.9062C13.5938 30.4687 18.75 36.0938 24.6094 36.7969H26.4844C32.5781 36.3281 37.5 30.4687 37.5 23.9062C37.5 17.5781 32.3438 12.6562 25.5469 12.6562Z" fill="url(#paint1_linear)"/>
<defs>
<linearGradient id="paint0_linear" x1="75" y1="96.0937" x2="75" y2="138.75" gradientUnits="userSpaceOnUse">
<stop stop-color="#D7277C"/>
<stop offset="1" stop-color="#FFCC00"/>
</linearGradient>
<linearGradient id="paint1_linear" x1="75" y1="0.28125" x2="75" y2="150" gradientUnits="userSpaceOnUse">
<stop stop-color="#D7277C"/>
<stop offset="1" stop-color="#FFCC00"/>
</linearGradient>
</defs>
</svg>
