<svg width="150" height="150" viewBox="0 0 150 150" fill="none" xmlns="http://www.w3.org/2000/svg">
<path d="M128.125 131.25H21.875C21.0462 131.25 20.2513 130.921 19.6653 130.335C19.0792 129.749 18.75 128.954 18.75 128.125V21.875C18.75 21.0462 19.0792 20.2513 19.6653 19.6653C20.2513 19.0792 21.0462 18.75 21.875 18.75H128.125C128.954 18.75 129.749 19.0792 130.335 19.6653C130.921 20.2513 131.25 21.0462 131.25 21.875V128.125C131.25 128.954 130.921 129.749 130.335 130.335C129.749 130.921 128.954 131.25 128.125 131.25ZM25 125H125V25H25V125Z" fill="url(#paint0_linear_25_146)"/>
<path d="M34.375 37.5C36.1009 37.5 37.5 36.1009 37.5 34.375C37.5 32.6491 36.1009 31.25 34.375 31.25C32.6491 31.25 31.25 32.6491 31.25 34.375C31.25 36.1009 32.6491 37.5 34.375 37.5Z" fill="url(#paint1_linear_25_146)"/>
<path d="M46.875 37.5C48.6009 37.5 50 36.1009 50 34.375C50 32.6491 48.6009 31.25 46.875 31.25C45.1491 31.25 43.75 32.6491 43.75 34.375C43.75 36.1009 45.1491 37.5 46.875 37.5Z" fill="url(#paint2_linear_25_146)"/>
<path d="M59.375 37.5C61.1009 37.5 62.5 36.1009 62.5 34.375C62.5 32.6491 61.1009 31.25 59.375 31.25C57.6491 31.25 56.25 32.6491 56.25 34.375C56.25 36.1009 57.6491 37.5 59.375 37.5Z" fill="url(#paint3_linear_25_146)"/>
<path d="M65.625 50.0001H21.875C21.0462 50.0001 20.2513 49.6708 19.6653 49.0848C19.0792 48.4987 18.75 47.7039 18.75 46.8751C18.75 46.0462 19.0792 45.2514 19.6653 44.6653C20.2513 44.0793 21.0462 43.7501 21.875 43.7501H64.3438L75.9063 32.1563C76.1983 31.8667 76.5445 31.6375 76.9253 31.482C77.306 31.3265 77.7137 31.2477 78.125 31.2501H128.125C128.954 31.2501 129.749 31.5793 130.335 32.1653C130.921 32.7514 131.25 33.5463 131.25 34.3751C131.25 35.2039 130.921 35.9987 130.335 36.5848C129.749 37.1708 128.954 37.5001 128.125 37.5001H79.4062L67.8437 49.0938C67.5517 49.3834 67.2055 49.6126 66.8247 49.7681C66.444 49.9236 66.0363 50.0024 65.625 50.0001ZM51.8438 100C51.4325 100.002 51.0248 99.9236 50.644 99.7681C50.2633 99.6126 49.917 99.3834 49.625 99.0938L37.125 86.5938C36.8321 86.3033 36.5996 85.9577 36.441 85.5769C36.2823 85.196 36.2006 84.7876 36.2006 84.375C36.2006 83.9625 36.2823 83.5541 36.441 83.1732C36.5996 82.7924 36.8321 82.4468 37.125 82.1563L49.625 69.6563C50.2105 69.0743 51.0025 68.7476 51.8281 68.7476C52.6537 68.7476 53.4457 69.0743 54.0313 69.6563C54.3242 69.9468 54.5566 70.2924 54.7153 70.6732C54.8739 71.0541 54.9556 71.4625 54.9556 71.875C54.9556 72.2876 54.8739 72.696 54.7153 73.0769C54.5566 73.4577 54.3242 73.8033 54.0313 74.0938L43.75 84.375L54.0313 94.6563C54.4701 95.0915 54.77 95.6471 54.8931 96.2528C55.0161 96.8584 54.9569 97.487 54.7227 98.059C54.4886 98.6309 54.0901 99.1206 53.5776 99.4661C53.0652 99.8117 52.4618 99.9975 51.8438 100ZM98.7188 100C98.098 100.004 97.4903 99.8223 96.9731 99.4792C96.4558 99.1361 96.0525 98.6467 95.8145 98.0734C95.5764 97.5002 95.5145 96.869 95.6366 96.2604C95.7587 95.6518 96.0593 95.0934 96.5 94.6563L106.781 84.375L96.5 74.0938C96.2071 73.8033 95.9746 73.4577 95.816 73.0769C95.6573 72.696 95.5756 72.2876 95.5756 71.875C95.5756 71.4625 95.6573 71.0541 95.816 70.6732C95.9746 70.2924 96.2071 69.9468 96.5 69.6563C97.0855 69.0743 97.8775 68.7476 98.7031 68.7476C99.5287 68.7476 100.321 69.0743 100.906 69.6563L113.406 82.1563C113.699 82.4468 113.932 82.7924 114.09 83.1732C114.249 83.5541 114.331 83.9625 114.331 84.375C114.331 84.7876 114.249 85.196 114.09 85.5769C113.932 85.9577 113.699 86.3033 113.406 86.5938L100.906 99.0938C100.324 99.6711 99.5386 99.9966 98.7188 100ZM68.75 100C68.2598 100.006 67.776 99.8877 67.3437 99.6563C66.6077 99.2817 66.0499 98.6309 65.7923 97.8462C65.5346 97.0616 65.5981 96.2068 65.9688 95.4688L78.4688 70.4688C78.6339 70.0721 78.8792 69.7137 79.1892 69.4161C79.4991 69.1184 79.8671 68.8879 80.2702 68.7389C80.6733 68.59 81.1028 68.5257 81.5318 68.5502C81.9608 68.5747 82.3802 68.6874 82.7637 68.8813C83.1472 69.0752 83.4866 69.3461 83.7606 69.6771C84.0347 70.0081 84.2375 70.3921 84.3565 70.805C84.4755 71.218 84.508 71.651 84.452 72.0771C84.396 72.5031 84.2528 72.9131 84.0312 73.2813L71.5312 98.2813C71.2716 98.7967 70.8742 99.23 70.3833 99.5334C69.8924 99.8368 69.3271 99.9983 68.75 100Z" fill="url(#paint4_linear_25_146)"/>
<defs>
<linearGradient id="paint0_linear_25_146" x1="75" y1="18.75" x2="75" y2="131.25" gradientUnits="userSpaceOnUse">
<stop stop-color="#D7277C"/>
<stop offset="1" stop-color="#FFCC00"/>
</linearGradient>
<linearGradient id="paint1_linear_25_146" x1="34.375" y1="31.25" x2="34.375" y2="37.5" gradientUnits="userSpaceOnUse">
<stop stop-color="#D7277C"/>
<stop offset="1" stop-color="#FFCC00"/>
</linearGradient>
<linearGradient id="paint2_linear_25_146" x1="46.875" y1="31.25" x2="46.875" y2="37.5" gradientUnits="userSpaceOnUse">
<stop stop-color="#D7277C"/>
<stop offset="1" stop-color="#FFCC00"/>
</linearGradient>
<linearGradient id="paint3_linear_25_146" x1="59.375" y1="31.25" x2="59.375" y2="37.5" gradientUnits="userSpaceOnUse">
<stop stop-color="#D7277C"/>
<stop offset="1" stop-color="#FFCC00"/>
</linearGradient>
<linearGradient id="paint4_linear_25_146" x1="75" y1="31.25" x2="75" y2="100" gradientUnits="userSpaceOnUse">
<stop stop-color="#D7277C"/>
<stop offset="1" stop-color="#FFCC00"/>
</linearGradient>
</defs>
</svg>
